<?xml version="1.0" encoding="UTF-8"?>
<svg xmlns="http://www.w3.org/2000/svg" xmlns:xlink="http://www.w3.org/1999/xlink" width="30pt" height="30pt" viewBox="0 0 40 40" version="1.1">
<g id="surface1">
<path style=" stroke:none;fill-rule:nonzero;fill:rgb(146,146,146);fill-opacity:1;" d="M 18.203125 0.078125 C 14.351562 0.453125 10.78125 1.875 7.65625 4.28125 C 6.132812 5.453125 4.15625 7.65625 3.015625 9.453125 C 2.523438 10.226562 1.5625 12.195312 1.21875 13.132812 C 0.820312 14.21875 0.414062 15.820312 0.21875 17.070312 C -0.0078125 18.53125 -0.0234375 21.289062 0.1875 22.695312 C 0.4375 24.429688 0.796875 25.804688 1.382812 27.265625 C 5.15625 36.757812 15.273438 41.90625 25.070312 39.335938 C 26.476562 38.960938 27.390625 38.617188 28.789062 37.929688 C 30.890625 36.898438 32.382812 35.828125 34.109375 34.109375 C 35.828125 32.382812 36.898438 30.890625 37.929688 28.789062 C 38.617188 27.390625 38.960938 26.476562 39.335938 25.054688 C 40.765625 19.617188 39.820312 13.796875 36.734375 9.101562 C 33.570312 4.273438 28.609375 1.085938 22.945312 0.226562 C 21.78125 0.0546875 19.273438 -0.03125 18.203125 0.078125 Z M 22.460938 2.921875 C 25.304688 3.335938 27.78125 4.359375 30.21875 6.117188 L 30.875 6.585938 L 18.742188 18.71875 C 12.0625 25.398438 6.585938 30.828125 6.554688 30.796875 C 4.75 28.65625 3.351562 25.445312 2.929688 22.453125 C 2.164062 17.039062 3.953125 11.65625 7.804688 7.804688 C 10.59375 5.023438 14.304688 3.25 18.242188 2.820312 C 19.148438 2.71875 21.453125 2.78125 22.460938 2.921875 Z M 33.367188 9.109375 C 36.617188 13.09375 37.921875 18.351562 36.90625 23.421875 C 35.867188 28.648438 32.367188 33.15625 27.53125 35.515625 C 22.101562 38.171875 15.523438 37.742188 10.53125 34.40625 C 9.710938 33.859375 8.515625 32.914062 8.515625 32.820312 C 8.515625 32.757812 32.757812 8.515625 32.828125 8.515625 C 32.859375 8.515625 33.101562 8.78125 33.367188 9.109375 Z M 33.367188 9.109375 "/>
</g>
</svg>
