<?xml version="1.0" encoding="UTF-8"?>
<svg xmlns="http://www.w3.org/2000/svg" xmlns:xlink="http://www.w3.org/1999/xlink" width="40pt" height="40pt" viewBox="0 0 40 40" version="1.1">
<g id="surface1">
<path style=" stroke:none;fill-rule:nonzero;fill:rgb(146,146,146);fill-opacity:1;" d="M 20 40 C 31.027344 40 40 31.027344 40 20 C 40 8.972656 31.027344 0 20 0 C 8.972656 0 0 8.972656 0 20 C 0 31.027344 8.972656 40 20 40 Z M 20 2.800781 C 29.484375 2.800781 37.199219 10.515625 37.199219 20 C 37.199219 29.484375 29.484375 37.199219 20 37.199219 C 10.515625 37.199219 2.800781 29.484375 2.800781 20 C 2.800781 10.515625 10.515625 2.800781 20 2.800781 Z M 20 2.800781 "/>
<path style=" stroke:none;fill-rule:nonzero;fill:rgb(146,146,146);fill-opacity:1;" d="M 21.207031 26.875 C 21.476562 27.144531 21.835938 27.28125 22.195312 27.28125 C 22.554688 27.28125 22.914062 27.144531 23.183594 26.875 C 23.730469 26.328125 23.730469 25.4375 23.183594 24.890625 L 18.285156 19.992188 L 23.183594 15.09375 C 23.730469 14.546875 23.730469 13.65625 23.183594 13.109375 C 22.636719 12.5625 21.746094 12.5625 21.199219 13.109375 L 15.3125 18.996094 C 15.054688 19.257812 14.90625 19.617188 14.90625 19.984375 C 14.90625 20.351562 15.054688 20.710938 15.3125 20.972656 Z M 21.207031 26.875 "/>
</g>
</svg>
