<?xml version="1.0" encoding="UTF-8"?>
<svg xmlns="http://www.w3.org/2000/svg" xmlns:xlink="http://www.w3.org/1999/xlink" width="40pt" height="40pt" viewBox="0 0 40 40" version="1.1">
<g id="surface1">
<path style=" stroke:none;fill-rule:nonzero;fill:rgb(146,146,146);fill-opacity:1;" d="M 40 20 C 40 8.972656 31.027344 0 20 0 C 8.972656 0 0 8.972656 0 20 C 0 31.027344 8.972656 40 20 40 C 31.027344 40 40 31.027344 40 20 Z M 2.800781 20 C 2.800781 10.515625 10.515625 2.800781 20 2.800781 C 29.484375 2.800781 37.199219 10.515625 37.199219 20 C 37.199219 29.484375 29.484375 37.199219 20 37.199219 C 10.515625 37.199219 2.800781 29.484375 2.800781 20 Z M 2.800781 20 "/>
<path style=" stroke:none;fill-rule:nonzero;fill:rgb(146,146,146);fill-opacity:1;" d="M 24.675781 19.011719 L 18.792969 13.125 C 18.246094 12.578125 17.355469 12.578125 16.808594 13.125 C 16.261719 13.671875 16.261719 14.5625 16.808594 15.109375 L 21.707031 20.007812 L 16.808594 24.90625 C 16.261719 25.453125 16.261719 26.34375 16.808594 26.890625 C 17.078125 27.160156 17.4375 27.296875 17.796875 27.296875 C 18.15625 27.296875 18.515625 27.160156 18.785156 26.890625 L 24.667969 21.003906 C 25.222656 20.441406 25.222656 19.558594 24.675781 19.011719 Z M 24.675781 19.011719 "/>
</g>
</svg>
